<svg xmlns="http://www.w3.org/2000/svg" viewBox="0 0 32 32">
  <!-- Fundo escudo azul escuro -->
  <path d="M16 2 L28 7 L28 18 C28 24 22 29 16 31 C10 29 4 24 4 18 L4 7 Z" fill="#1E3A8A"/>
  <!-- Borda do escudo -->
  <path d="M16 2 L28 7 L28 18 C28 24 22 29 16 31 C10 29 4 24 4 18 L4 7 Z" fill="none" stroke="#3B82F6" stroke-width="1.5"/>
  <!-- Estrela central branca -->
  <polygon points="16,8 17.2,12 21,12 18,14.5 19.2,18.5 16,16 12.8,18.5 14,14.5 11,12 14.8,12" fill="white"/>
  <!-- Letras GM na parte inferior -->
  <text x="16" y="27" text-anchor="middle" fill="#93C5FD" font-size="6" font-weight="bold" font-family="Arial, sans-serif">GMM</text>
</svg>
